<svg xml:space="preserve" style="enable-background:new 0 0 450 75;" viewBox="0 0 450 75" y="0px" x="0px" xmlns:xlink="http://www.w3.org/1999/xlink" xmlns="http://www.w3.org/2000/svg" id="Layer_1" version="1.1">
<style type="text/css">
	.st0{fill:#010101;}
	.st1{fill:url(#SVGID_1_);}
	.st2{fill:url(#SVGID_00000065789117575542032590000010149800203677232513_);}
	.st3{fill:url(#SVGID_00000132056418017763605060000004393932713455877259_);}
	.st4{fill:url(#SVGID_00000062174937139071038980000017520523207932924293_);}
	.st5{fill:#FFFFFF;}
	.st6{fill:url(#SVGID_00000063597559760402291620000016315299238015687044_);}
	.st7{fill:url(#SVGID_00000057829235249489867760000009652415983517124260_);}
	.st8{fill:url(#SVGID_00000088839155848051908170000011915199119756046233_);}
	.st9{fill:url(#SVGID_00000091712636246805588870000007490676685200482987_);}
	.st10{fill:url(#SVGID_00000142161258381230896320000004086828947915274410_);}
	.st11{fill:url(#SVGID_00000044892926720543047530000015529553930806574981_);}
	.st12{fill:url(#SVGID_00000150091734364725370690000003773504081825683885_);}
	.st13{fill:url(#SVGID_00000155841801435849444320000012967282688459116164_);}
	.st14{fill:url(#SVGID_00000183934384257242827080000013886356713444372134_);}
	.st15{fill:#C52128;}
</style>
<g>
	<path d="M226.9,44.81c-0.02,0-0.03-0.01-0.05-0.01c-0.24-0.01-0.47-0.03-0.71-0.07c-0.38-0.06-0.75-0.14-1.11-0.26
		c-0.7-0.22-1.34-0.55-1.94-0.96c-1.48-1.02-2.97-2.04-4.45-3.07c-1.42-0.98-2.83-1.97-4.24-2.96c-1.55-1.09-3.1-2.18-4.65-3.28
		c-0.38-0.27-0.76-0.54-1.14-0.81c-0.57-0.4-1.2-0.67-1.88-0.81c-0.22-0.05-0.44-0.08-0.67-0.09c-0.18-0.01-0.36-0.01-0.54-0.01
		c-0.93,0.05-1.79,0.33-2.58,0.83c-0.74,0.48-1.33,1.11-1.75,1.89c-0.25,0.48-0.43,0.99-0.52,1.52c-0.04,0.22-0.06,0.44-0.07,0.66
		c-0.04,0.81,0.09,1.59,0.41,2.34c0.24,0.56,0.57,1.06,0.98,1.51c0.44,0.47,0.95,0.86,1.53,1.15c0.48,0.24,0.98,0.42,1.51,0.51
		c0.24,0.04,0.48,0.07,0.73,0.08c0.93,0.04,1.82-0.15,2.66-0.56c0.25-0.12,0.49-0.27,0.73-0.42c1.29-0.8,2.58-1.58,3.89-2.34
		c0.59-0.34,1.19-0.68,1.79-1.02c0.01-0.01,0.03-0.01,0.04-0.02c-0.03,0.02-0.05,0.05-0.08,0.07c-0.95,0.87-1.93,1.72-2.91,2.55
		c-0.71,0.6-1.42,1.19-2.13,1.78c-0.27,0.22-0.56,0.41-0.87,0.58c-0.56,0.32-1.16,0.55-1.79,0.69c-0.27,0.06-0.55,0.11-0.83,0.14
		c-0.32,0.03-0.63,0.04-0.95,0.03c-0.63-0.03-1.24-0.14-1.84-0.33c-0.92-0.3-1.75-0.76-2.48-1.39c-0.97-0.84-1.65-1.87-2.06-3.09
		c-0.13-0.39-0.22-0.79-0.28-1.2c-0.04-0.26-0.06-0.52-0.07-0.79c0-0.1-0.01-0.2-0.01-0.3c0.01-0.21,0.02-0.42,0.04-0.63
		c0.02-0.33,0.08-0.65,0.15-0.97c0.12-0.52,0.29-1.02,0.52-1.5c0.32-0.66,0.73-1.26,1.24-1.8c0.55-0.58,1.18-1.06,1.89-1.44
		c0.67-0.35,1.37-0.6,2.11-0.74c0.24-0.05,0.49-0.08,0.74-0.1c0.21-0.01,0.43-0.03,0.64-0.03c0.31,0,0.63,0.03,0.94,0.07
		c0.73,0.1,1.42,0.31,2.08,0.62c0.4,0.19,0.77,0.41,1.13,0.66c1.7,1.19,3.4,2.37,5.1,3.56c1.57,1.1,3.14,2.21,4.7,3.33
		c1.51,1.08,3.02,2.16,4.53,3.24c0.52,0.38,1.09,0.66,1.72,0.82c0.29,0.08,0.59,0.13,0.89,0.15c0.12,0.01,0.25,0.02,0.37,0.02
		c0.29,0,0.57-0.02,0.85-0.07c0.47-0.08,0.92-0.22,1.35-0.42c0.58-0.27,1.1-0.64,1.55-1.1c0.62-0.64,1.06-1.39,1.29-2.25
		c0.08-0.3,0.14-0.61,0.17-0.93c0.03-0.28,0.03-0.56,0.02-0.85c-0.08-1.31-0.57-2.44-1.47-3.4c-0.81-0.85-1.8-1.4-2.94-1.65
		c-0.25-0.06-0.51-0.09-0.76-0.11c-0.18-0.01-0.37-0.02-0.55-0.02c-0.54,0.01-1.07,0.1-1.58,0.27c-0.54,0.17-1.04,0.42-1.51,0.73
		c-1.3,0.84-2.6,1.68-3.91,2.52c-0.55,0.36-1.11,0.7-1.66,1.05c-0.02,0.01-0.04,0.02-0.06,0.03c0.01-0.01,0.02-0.02,0.04-0.03
		c0.91-0.73,1.82-1.46,2.73-2.19c0.87-0.69,1.74-1.38,2.61-2.06c0.79-0.62,1.67-1.03,2.65-1.23c0.29-0.06,0.58-0.1,0.87-0.12
		c0.18-0.01,0.36-0.02,0.55-0.02c0.25,0,0.49,0.02,0.73,0.05c0.62,0.08,1.21,0.24,1.79,0.47c0.78,0.33,1.48,0.78,2.1,1.37
		c0.58,0.55,1.05,1.19,1.41,1.9c0.28,0.56,0.47,1.14,0.59,1.75c0.05,0.28,0.09,0.56,0.11,0.84c0.01,0.08,0.01,0.16,0.01,0.24
		c0,0.02,0.01,0.03,0.01,0.05c0,0.16,0,0.32,0,0.48c0,0.03-0.01,0.07-0.01,0.1c0,0.31-0.04,0.62-0.1,0.92
		c-0.12,0.69-0.34,1.34-0.66,1.96c-0.37,0.71-0.84,1.34-1.43,1.89c-0.78,0.73-1.68,1.27-2.69,1.61c-0.39,0.13-0.79,0.23-1.19,0.29
		c-0.25,0.04-0.5,0.06-0.75,0.07c-0.02,0-0.04,0.01-0.06,0.01C227.28,44.81,227.09,44.81,226.9,44.81z" class="st15"></path>
	<g>
		<g>
			<polygon points="5.75,53.11 5.75,21.89 8.3,21.89 8.3,50.92 23.17,50.92 23.17,53.11" class="st0"></polygon>
			<polygon points="6,52.86 6,22.14 8.05,22.14 8.05,51.17 22.92,51.17 22.92,52.86" class="st0"></polygon>
			<path d="M43.56,53.92c-2.33,0-4.27-0.4-5.74-1.2c-1.48-0.8-2.67-1.82-3.53-3.03c-0.87-1.22-1.48-2.57-1.81-4
				c-0.34-1.45-0.51-2.84-0.51-4.14V21.89h2.55v19.3c0,1.32,0.16,2.61,0.46,3.85c0.31,1.25,0.82,2.39,1.52,3.36
				c0.7,0.99,1.65,1.8,2.8,2.4c1.16,0.61,2.59,0.92,4.26,0.92c1.67,0,3.11-0.31,4.26-0.92c1.16-0.61,2.1-1.42,2.8-2.4
				c0.7-0.98,1.21-2.11,1.52-3.36c0.31-1.24,0.46-2.53,0.46-3.85v-19.3h2.55v19.66c0,1.29-0.17,2.68-0.51,4.14
				c-0.33,1.44-0.94,2.78-1.81,4c-0.87,1.21-2.06,2.23-3.55,3.03C47.78,53.52,45.86,53.92,43.56,53.92z" class="st0"></path>
			<path d="M43.56,53.67c-2.29,0-4.18-0.39-5.62-1.17c-1.44-0.78-2.6-1.77-3.45-2.95c-0.85-1.19-1.45-2.51-1.77-3.91
				c-0.33-1.43-0.5-2.81-0.5-4.08V22.14h2.05V41.2c0,1.34,0.16,2.65,0.47,3.91c0.32,1.28,0.84,2.44,1.56,3.45
				c0.73,1.02,1.7,1.85,2.89,2.48c1.19,0.63,2.67,0.95,4.38,0.95c1.71,0,3.19-0.32,4.38-0.95c1.19-0.63,2.16-1.46,2.89-2.48
				c0.72-1,1.24-2.16,1.56-3.45c0.31-1.26,0.47-2.57,0.47-3.91V22.14h2.05v19.41c0,1.27-0.17,2.64-0.5,4.08
				c-0.33,1.4-0.92,2.72-1.77,3.91c-0.84,1.18-2.01,2.17-3.47,2.95C47.7,53.28,45.82,53.67,43.56,53.67z" class="st0"></path>
			<polygon points="88.56,53.11 78.64,38.46 68.77,53.11 65.57,53.11 77.04,36.69 66.6,21.89 69.81,21.89 78.74,35.06 
				87.62,21.89 90.64,21.89 80.29,36.73 91.77,53.11" class="st0"></polygon>
			<polygon points="88.7,52.86 78.64,38.01 68.64,52.86 66.04,52.86 77.35,36.69 67.09,22.14 69.67,22.14 78.74,35.5 
				87.75,22.14 90.16,22.14 79.99,36.73 91.29,52.86" class="st0"></polygon>
			<path d="M113.78,53.92c-2.33,0-4.27-0.4-5.74-1.2c-1.48-0.8-2.67-1.82-3.53-3.03c-0.87-1.22-1.48-2.57-1.81-4
				c-0.34-1.45-0.51-2.84-0.51-4.14V21.89h2.55v19.3c0,1.31,0.16,2.61,0.46,3.85c0.31,1.25,0.82,2.39,1.52,3.36
				c0.71,0.99,1.65,1.8,2.8,2.4c1.16,0.61,2.59,0.92,4.26,0.92c1.67,0,3.11-0.31,4.26-0.92c1.16-0.61,2.1-1.42,2.8-2.4
				c0.7-0.98,1.21-2.11,1.52-3.36c0.31-1.24,0.46-2.54,0.46-3.85v-19.3h2.55v19.66c0,1.29-0.17,2.68-0.51,4.14
				c-0.33,1.44-0.94,2.78-1.81,4c-0.87,1.21-2.06,2.23-3.55,3.03C118.01,53.52,116.08,53.92,113.78,53.92z" class="st0"></path>
			<path d="M113.78,53.67c-2.29,0-4.18-0.39-5.62-1.17c-1.44-0.78-2.6-1.77-3.45-2.95c-0.85-1.19-1.45-2.51-1.77-3.91
				c-0.33-1.43-0.5-2.81-0.5-4.08V22.14h2.05V41.2c0,1.34,0.16,2.65,0.47,3.91c0.32,1.28,0.84,2.44,1.56,3.45
				c0.73,1.02,1.7,1.85,2.89,2.48c1.19,0.63,2.67,0.95,4.38,0.95c1.71,0,3.19-0.32,4.38-0.95c1.19-0.63,2.16-1.46,2.89-2.48
				c0.72-1,1.24-2.16,1.56-3.45c0.31-1.26,0.47-2.57,0.47-3.91V22.14h2.05v19.41c0,1.27-0.17,2.64-0.5,4.08
				c-0.33,1.4-0.92,2.72-1.77,3.91c-0.84,1.18-2.01,2.17-3.47,2.95C117.93,53.28,116.04,53.67,113.78,53.67z" class="st0"></path>
			<path d="M156.19,53.11l-8.83-14.92h-5.95v14.92h-2.55V21.89h9.03c1.53,0,2.96,0.15,4.27,0.44
				c1.29,0.29,2.41,0.76,3.35,1.41c0.92,0.64,1.65,1.48,2.16,2.51c0.51,1.03,0.77,2.31,0.77,3.81c0,1.12-0.2,2.15-0.6,3.06
				c-0.4,0.92-0.95,1.72-1.64,2.39c-0.69,0.67-1.52,1.22-2.46,1.62c-0.96,0.41-2.01,0.67-3.14,0.79l-0.55,0.06l9.29,15.13H156.19z
				 M147.38,36.09c2.67,0,4.77-0.5,6.23-1.48c1.51-1.01,2.27-2.54,2.27-4.55c0-1.1-0.21-2.05-0.63-2.82c-0.42-0.77-1-1.4-1.74-1.88
				c-0.72-0.47-1.61-0.82-2.64-1.04c-1.01-0.21-2.14-0.32-3.36-0.32h-6.12v12.1H147.38z" class="st0"></path>
			<path d="M156.33,52.86l-8.83-14.92h-6.35v14.92h-2.05V22.14h8.78c1.51,0,2.93,0.15,4.22,0.44
				c1.25,0.28,2.35,0.74,3.26,1.37c0.89,0.62,1.59,1.43,2.08,2.41c0.5,0.99,0.75,2.24,0.75,3.7c0,1.08-0.2,2.08-0.58,2.96
				c-0.39,0.89-0.92,1.67-1.58,2.31c-0.67,0.65-1.47,1.18-2.38,1.57c-0.93,0.4-1.97,0.65-3.07,0.77l-0.95,0.1l9.27,15.09H156.33z
				 M141.15,36.34h6.23c2.72,0,4.87-0.51,6.37-1.52c1.58-1.06,2.38-2.66,2.38-4.76c0-1.15-0.22-2.14-0.66-2.94
				c-0.44-0.81-1.05-1.47-1.82-1.97c-0.75-0.49-1.67-0.85-2.73-1.08c-1.03-0.22-2.18-0.33-3.41-0.33h-6.37V36.34z" class="st0"></path>
			<polygon points="177.77,53.11 177.77,39.6 166.12,21.89 169.34,21.89 179.13,37.66 189.02,21.89 191.96,21.89 
				180.32,39.6 180.32,53.11" class="st0"></polygon>
			<polygon points="178.02,52.86 178.02,39.53 166.58,22.14 169.2,22.14 179.13,38.13 189.15,22.14 191.5,22.14 
				180.07,39.53 180.07,52.86" class="st0"></polygon>
		</g>
		<g>
			<polygon points="245.95,53.11 245.95,21.89 264.5,21.89 264.5,24.08 248.5,24.08 248.5,35.82 263.37,35.82 
				263.37,38.01 248.5,38.01 248.5,53.11" class="st0"></polygon>
			<polygon points="246.2,52.86 246.2,22.14 264.25,22.14 264.25,23.83 248.25,23.83 248.25,36.07 263.12,36.07 
				263.12,37.76 248.25,37.76 248.25,52.86" class="st0"></polygon>
			<path d="M287.62,53.92c-2.32,0-4.49-0.42-6.47-1.24c-1.98-0.82-3.71-1.97-5.16-3.42c-1.45-1.45-2.6-3.19-3.42-5.18
				c-0.82-1.99-1.24-4.21-1.24-6.58s0.42-4.59,1.24-6.58c0.82-1.99,1.97-3.73,3.42-5.18c1.45-1.45,3.18-2.6,5.16-3.42
				c1.98-0.82,4.15-1.24,6.47-1.24s4.49,0.42,6.47,1.24c1.98,0.82,3.71,1.97,5.16,3.42c1.45,1.45,2.6,3.19,3.42,5.18
				c0.82,1.99,1.24,4.21,1.24,6.58c0,2.38-0.42,4.59-1.24,6.58c-0.82,1.99-1.97,3.73-3.42,5.18c-1.45,1.45-3.19,2.6-5.16,3.42
				C292.11,53.5,289.94,53.92,287.62,53.92z M287.62,23.27c-2.08,0-3.99,0.39-5.67,1.16c-1.67,0.77-3.11,1.82-4.28,3.12
				c-1.17,1.3-2.07,2.83-2.68,4.55c-0.61,1.71-0.92,3.53-0.92,5.43c0,1.89,0.31,3.72,0.92,5.43c0.61,1.72,1.52,3.24,2.68,4.53
				c1.17,1.29,2.61,2.33,4.28,3.1c1.68,0.77,3.58,1.16,5.67,1.16c2.08,0,3.99-0.39,5.67-1.16c1.67-0.77,3.11-1.81,4.28-3.1
				c1.17-1.29,2.07-2.81,2.68-4.53c0.61-1.71,0.92-3.53,0.92-5.43c0-1.89-0.31-3.72-0.92-5.43c-0.61-1.71-1.52-3.24-2.68-4.55
				c-1.17-1.31-2.61-2.36-4.28-3.12C291.61,23.66,289.7,23.27,287.62,23.27z" class="st0"></path>
			<path d="M287.62,53.67c-2.28,0-4.43-0.41-6.37-1.22c-1.94-0.81-3.65-1.94-5.08-3.36c-1.43-1.43-2.56-3.14-3.36-5.1
				c-0.81-1.96-1.22-4.14-1.22-6.49c0-2.34,0.41-4.53,1.22-6.49c0.81-1.96,1.94-3.68,3.36-5.1c1.42-1.42,3.13-2.56,5.08-3.36
				c1.95-0.81,4.09-1.22,6.37-1.22c2.28,0,4.43,0.41,6.37,1.22c1.95,0.81,3.66,1.94,5.08,3.36c1.42,1.42,2.56,3.14,3.36,5.1
				c0.81,1.96,1.22,4.14,1.22,6.49c0,2.34-0.41,4.53-1.22,6.49c-0.81,1.96-1.94,3.68-3.36,5.1c-1.43,1.43-3.14,2.56-5.08,3.36
				C292.05,53.26,289.9,53.67,287.62,53.67z M287.62,23.02c-2.12,0-4.06,0.4-5.77,1.18c-1.7,0.78-3.17,1.85-4.37,3.18
				c-1.19,1.33-2.11,2.88-2.73,4.63c-0.62,1.74-0.94,3.59-0.94,5.51c0,1.92,0.32,3.78,0.94,5.51c0.62,1.75,1.54,3.3,2.73,4.61
				c1.19,1.31,2.66,2.38,4.36,3.16c1.71,0.78,3.65,1.18,5.77,1.18c2.12,0,4.06-0.4,5.77-1.18c1.7-0.78,3.17-1.84,4.36-3.16
				c1.19-1.31,2.11-2.86,2.73-4.61c0.62-1.74,0.94-3.59,0.94-5.51c0-1.92-0.32-3.77-0.94-5.51c-0.62-1.75-1.54-3.3-2.73-4.63
				c-1.19-1.33-2.66-2.4-4.37-3.18C291.68,23.42,289.74,23.02,287.62,23.02z" class="st0"></path>
			<path d="M330.47,53.11l-8.83-14.92h-5.95v14.92h-2.55V21.89h9.03c1.53,0,2.96,0.15,4.27,0.44
				c1.29,0.29,2.41,0.76,3.35,1.41c0.92,0.64,1.65,1.48,2.16,2.51c0.51,1.03,0.77,2.31,0.77,3.81c0,1.12-0.2,2.15-0.6,3.06
				c-0.4,0.92-0.95,1.72-1.64,2.39c-0.69,0.67-1.52,1.22-2.46,1.62c-0.96,0.41-2.01,0.67-3.14,0.79l-0.55,0.06l9.29,15.13H330.47z
				 M321.66,36.09c2.67,0,4.77-0.5,6.23-1.48c1.51-1.01,2.27-2.54,2.27-4.55c0-1.1-0.21-2.05-0.63-2.82c-0.42-0.77-1-1.4-1.74-1.88
				c-0.72-0.47-1.61-0.82-2.64-1.04c-1.01-0.21-2.14-0.32-3.36-0.32h-6.12v12.1H321.66z" class="st0"></path>
			<path d="M330.61,52.86l-8.83-14.92h-6.35v14.92h-2.05V22.14h8.78c1.51,0,2.93,0.15,4.22,0.44
				c1.25,0.28,2.35,0.74,3.26,1.37c0.89,0.62,1.59,1.43,2.08,2.41c0.5,0.99,0.75,2.24,0.75,3.7c0,1.08-0.2,2.08-0.58,2.96
				c-0.39,0.89-0.92,1.67-1.58,2.31c-0.67,0.65-1.47,1.18-2.38,1.57c-0.93,0.4-1.97,0.65-3.07,0.77l-0.95,0.1l9.27,15.09H330.61z
				 M315.43,36.34h6.23c2.72,0,4.87-0.51,6.37-1.52c1.58-1.06,2.38-2.66,2.38-4.76c0-1.15-0.22-2.14-0.66-2.94
				c-0.44-0.81-1.05-1.47-1.82-1.97c-0.75-0.49-1.67-0.85-2.73-1.08c-1.03-0.22-2.18-0.33-3.41-0.33h-6.37V36.34z" class="st0"></path>
		</g>
		<g>
			<polygon points="361.04,53.11 361.04,39.6 349.4,21.89 352.61,21.89 362.41,37.66 372.29,21.89 375.24,21.89 
				363.59,39.6 363.59,53.11" class="st0"></polygon>
			<polygon points="361.29,52.86 361.29,39.53 349.86,22.14 352.48,22.14 362.4,38.13 372.43,22.14 374.78,22.14 
				363.34,39.53 363.34,52.86" class="st0"></polygon>
			<path d="M395.73,53.92c-2.32,0-4.49-0.42-6.47-1.24c-1.98-0.82-3.71-1.97-5.16-3.42c-1.45-1.45-2.6-3.19-3.42-5.18
				c-0.82-1.99-1.24-4.21-1.24-6.58s0.42-4.59,1.24-6.58c0.82-1.99,1.97-3.73,3.42-5.18c1.45-1.45,3.18-2.6,5.16-3.42
				c1.98-0.82,4.15-1.24,6.47-1.24c2.32,0,4.49,0.42,6.47,1.24c1.98,0.82,3.71,1.97,5.16,3.42c1.45,1.45,2.6,3.19,3.42,5.18
				c0.82,1.99,1.24,4.21,1.24,6.58s-0.42,4.59-1.24,6.58c-0.82,1.99-1.97,3.73-3.42,5.18c-1.45,1.45-3.19,2.6-5.16,3.42
				C400.22,53.5,398.04,53.92,395.73,53.92z M395.73,23.27c-2.08,0-3.99,0.39-5.67,1.16c-1.67,0.77-3.11,1.82-4.28,3.12
				c-1.17,1.3-2.07,2.83-2.68,4.55c-0.61,1.71-0.92,3.53-0.92,5.43c0,1.89,0.31,3.72,0.92,5.43c0.61,1.72,1.52,3.24,2.68,4.53
				c1.17,1.29,2.61,2.33,4.28,3.1c1.68,0.77,3.58,1.16,5.67,1.16c2.08,0,3.99-0.39,5.67-1.16c1.67-0.77,3.11-1.81,4.28-3.1
				c1.17-1.29,2.07-2.81,2.68-4.53c0.61-1.71,0.92-3.54,0.92-5.43c0-1.89-0.31-3.72-0.92-5.43c-0.61-1.71-1.52-3.24-2.68-4.55
				c-1.17-1.31-2.61-2.36-4.28-3.12C399.72,23.66,397.81,23.27,395.73,23.27z" class="st0"></path>
			<path d="M395.73,53.67c-2.28,0-4.43-0.41-6.37-1.22c-1.94-0.81-3.65-1.94-5.08-3.36c-1.43-1.43-2.56-3.14-3.36-5.1
				c-0.81-1.96-1.22-4.14-1.22-6.49c0-2.34,0.41-4.53,1.22-6.49c0.81-1.96,1.94-3.68,3.36-5.1c1.42-1.42,3.13-2.56,5.08-3.36
				c1.95-0.81,4.09-1.22,6.37-1.22c2.28,0,4.43,0.41,6.37,1.22c1.95,0.81,3.66,1.94,5.08,3.36c1.42,1.42,2.56,3.14,3.36,5.1
				c0.81,1.96,1.22,4.14,1.22,6.49c0,2.34-0.41,4.53-1.22,6.49c-0.81,1.96-1.94,3.68-3.36,5.1c-1.43,1.43-3.14,2.56-5.08,3.36
				C400.16,53.26,398.01,53.67,395.73,53.67z M395.73,23.02c-2.12,0-4.06,0.4-5.77,1.18c-1.7,0.78-3.17,1.85-4.37,3.18
				c-1.19,1.33-2.11,2.88-2.73,4.63c-0.62,1.74-0.94,3.59-0.94,5.51c0,1.92,0.32,3.78,0.94,5.51c0.62,1.75,1.54,3.3,2.73,4.61
				c1.19,1.31,2.66,2.38,4.36,3.16c1.71,0.78,3.65,1.18,5.77,1.18c2.12,0,4.06-0.4,5.77-1.18c1.7-0.78,3.17-1.84,4.36-3.16
				c1.19-1.31,2.11-2.86,2.73-4.61c0.62-1.74,0.94-3.59,0.94-5.51c0-1.92-0.32-3.77-0.94-5.51c-0.62-1.75-1.54-3.3-2.73-4.63
				c-1.19-1.33-2.66-2.4-4.37-3.18C399.79,23.42,397.85,23.02,395.73,23.02z" class="st0"></path>
			<path d="M432.65,53.92c-2.33,0-4.27-0.4-5.74-1.2c-1.48-0.8-2.67-1.82-3.53-3.03c-0.87-1.22-1.48-2.57-1.81-4
				c-0.34-1.45-0.51-2.84-0.51-4.14V21.89h2.55v19.3c0,1.32,0.16,2.61,0.46,3.85c0.31,1.25,0.82,2.39,1.52,3.36
				c0.7,0.99,1.65,1.8,2.8,2.4c1.16,0.61,2.59,0.92,4.26,0.92c1.67,0,3.11-0.31,4.26-0.92c1.16-0.61,2.1-1.42,2.8-2.4
				c0.7-0.98,1.21-2.11,1.52-3.36c0.31-1.24,0.46-2.53,0.46-3.85v-19.3h2.55v19.66c0,1.29-0.17,2.68-0.51,4.14
				c-0.33,1.44-0.94,2.78-1.81,4c-0.87,1.21-2.06,2.23-3.55,3.03C436.88,53.52,434.96,53.92,432.65,53.92z" class="st0"></path>
			<path d="M432.65,53.67c-2.29,0-4.18-0.39-5.62-1.17c-1.44-0.78-2.6-1.77-3.45-2.95c-0.85-1.19-1.45-2.51-1.77-3.91
				c-0.33-1.43-0.5-2.81-0.5-4.08V22.14h2.05V41.2c0,1.34,0.16,2.65,0.47,3.91c0.32,1.28,0.84,2.44,1.56,3.45
				c0.73,1.02,1.7,1.85,2.89,2.48c1.19,0.63,2.67,0.95,4.38,0.95c1.71,0,3.19-0.32,4.38-0.95c1.19-0.63,2.16-1.46,2.89-2.48
				c0.72-1,1.24-2.16,1.56-3.45c0.31-1.26,0.47-2.57,0.47-3.91V22.14H444v19.41c0,1.27-0.17,2.64-0.5,4.08
				c-0.33,1.4-0.92,2.72-1.77,3.91c-0.84,1.18-2.01,2.17-3.47,2.95C436.8,53.28,434.92,53.67,432.65,53.67z" class="st0"></path>
		</g>
	</g>
</g>
</svg>
